<?xml version="1.0" encoding="utf-8"?>
<!-- Generator: Adobe Illustrator 23.0.0, SVG Export Plug-In . SVG Version: 6.00 Build 0)  -->
<svg version="1.1" id="Layer_1" xmlns="http://www.w3.org/2000/svg" xmlns:xlink="http://www.w3.org/1999/xlink" x="0px" y="0px"
	 viewBox="0 0 125.97 32.96" style="enable-background:new 0 0 125.97 32.96;" xml:space="preserve">
<style type="text/css">
	.st0{fill:#FFE300;}
	.st1{fill:#140700;}
	.st2{clip-path:url(#SVGID_2_);fill:#140700;}
</style>
<path class="st0" d="M44.46,17.77l8.46,4.17l-4.17,8.46L44.46,17.77z M28.62,21.48l4.57-9.28l9.62,4.75l4.7,13.86L28.62,21.48z
	 M33.76,11.04l4.17-8.46l4.28,12.63L33.76,11.04z M43.87,16.03l-4.7-13.86l18.92,9.33l-4.59,9.28L43.87,16.03z M37.78,0l-0.41,0.83
	L26.89,22.07l21.24,10.48l0.83,0.41l0.41-0.83l10.49-21.24L38.61,0.41L37.78,0z"/>
<path class="st1" d="M43.28,17.77l8.46,4.17l-4.17,8.46L43.28,17.77z M27.43,21.48l4.57-9.28l9.62,4.75l4.7,13.86L27.43,21.48z
	 M32.58,11.04l4.17-8.46l4.28,12.63L32.58,11.04z M42.68,16.03l-4.7-13.86l18.92,9.33l-4.59,9.29L42.68,16.03z M36.6,0l-0.41,0.83
	L25.7,22.07l21.24,10.48l0.83,0.41l0.41-0.83l10.48-21.24L37.42,0.41L36.6,0z"/>
<path class="st1" d="M3.37,30.22h6.16v-1.88H3.37V30.22z M3.37,23.35h5.52v-1.69H3.37V23.35z M0,30.22h2.52V14.98H0V30.22z
	 M3.37,16.87h6.16v-1.88H3.37V16.87z"/>
<path class="st1" d="M12.92,14.98h2.52v15.23h-2.52V14.98z M21.41,14.98h2.52v15.23h-2.52l-5.13-9.01v-4.75l5.13,9.03V14.98z"/>
<path class="st1" d="M60.35,14.98h2.52l4.09,9.4v3.82H66.3l-3.43-8.47v10.48h-2.52V14.98z M71.9,14.98h2.52v15.23H71.9V19.74
	l-3.41,8.47h-0.68v-3.78L71.9,14.98z"/>
<path class="st1" d="M78.29,14.98h2.52v15.23h-2.52V14.98z M87.82,16.87h-6.16v-1.88h6.16V16.87z M87.17,23.35h-5.52v-1.69h5.52
	V23.35z M81.66,28.34h6.16v1.88h-6.16V28.34z"/>
<g>
	<defs>
		<rect id="SVGID_1_" y="0" width="125.97" height="32.96"/>
	</defs>
	<clipPath id="SVGID_2_">
		<use xlink:href="#SVGID_1_"  style="overflow:visible;"/>
	</clipPath>
	<path class="st2" d="M91.29,14.98h2.48v15.23h-2.48V14.98z M95.88,14.98c1.28,0,2.41,0.2,3.38,0.61c0.97,0.41,1.78,0.95,2.42,1.62
		c0.64,0.68,1.12,1.44,1.44,2.3c0.32,0.86,0.48,1.75,0.48,2.66c0,1.25-0.14,2.32-0.4,3.21c-0.27,0.89-0.61,1.63-1.02,2.23
		c-0.41,0.6-0.88,1.07-1.4,1.42c-0.52,0.34-1.02,0.6-1.5,0.77c-0.48,0.17-0.92,0.28-1.32,0.33c-0.4,0.05-0.7,0.07-0.89,0.07h-2.44
		V28.4h1.61c1.68,0,2.89-0.54,3.64-1.61c0.74-1.07,1.12-2.63,1.12-4.67c0-0.63-0.07-1.26-0.23-1.88c-0.15-0.62-0.44-1.18-0.88-1.68
		c-0.43-0.5-1.02-0.91-1.77-1.22c-0.74-0.31-1.71-0.47-2.89-0.47h-0.6v-1.88H95.88z"/>
	<rect x="107.16" y="14.98" class="st2" width="2.52" height="15.23"/>
	<path class="st2" d="M125.97,30.22h-2.56l-3.95-11.41l-3.99,11.41h-2.58L118.22,15h2.46L125.97,30.22z M120.82,25.38l0.6,1.67
		h-3.95l0.58-1.67H120.82z"/>
</g>
</svg>
